<svg xmlns="http://www.w3.org/2000/svg" viewBox="0 0 68 76.5"><defs><style>.cls-1{fill:#fff;}.cls-1,.cls-2{stroke:#fff;stroke-linecap:round;stroke-linejoin:round;stroke-width:2px;}.cls-2{fill:none;}</style></defs><g id="Layer_2" data-name="Layer 2"><g id="Layer_6" data-name="Layer 6"><line class="cls-1" x1="23.64" y1="27.4" x2="24.36" y2="74.63"/><polygon class="cls-2" points="23.78 1 19.5 25.5 27.28 25.5 23.78 1"/><polygon class="cls-2" points="1 40.31 24.36 31.76 20.47 25.03 1 40.31"/><polygon class="cls-2" points="46.15 40.55 27.07 24.59 23.18 31.33 46.15 40.55"/><circle class="cls-1" cx="23.64" cy="27.4" r="4.14"/><line class="cls-1" x1="52.6" y1="45.73" x2="52.89" y2="74.63"/><polygon class="cls-2" points="52.7 27.84 49.97 43.5 54.94 43.5 52.7 27.84"/><polygon class="cls-2" points="38.14 53.6 53.07 48.13 50.59 43.83 38.14 53.6"/><polygon class="cls-2" points="67 53.75 54.81 43.55 52.32 47.86 67 53.75"/><path class="cls-1" d="M55.7,45.73a3.1,3.1,0,1,1-3.1-3.1A3.1,3.1,0,0,1,55.7,45.73Z"/><line class="cls-1" x1="12.5" y1="75.5" x2="63.5" y2="75.5"/></g></g></svg>