<svg xmlns="http://www.w3.org/2000/svg" viewBox="0 0 88.04 88.04"><defs><style>.cls-1,.cls-2{fill:none;stroke-miterlimit:10;stroke-width:3px;}.cls-1{stroke:#231815;}.cls-2{stroke:#604c3f;}</style></defs><g id="Layer_2" data-name="Layer 2"><g id="icons"><path class="cls-1" d="M86.54,44A42.52,42.52,0,1,0,44,86.54,42.52,42.52,0,0,0,86.54,44Z"/><path class="cls-2" d="M61.06,14.55a1.4,1.4,0,0,0-1.91.51L49.57,31.65a1.4,1.4,0,0,0,.51,1.9,12.19,12.19,0,0,1,6.09,10.51,1.39,1.39,0,0,0,1.39,1.4H76.7a1.39,1.39,0,0,0,1.4-1.4A34.22,34.22,0,0,0,61.06,14.55Z"/><path class="cls-2" d="M31.87,44.06A12.2,12.2,0,0,1,38,33.55a1.38,1.38,0,0,0,.51-1.9L28.89,15.06a1.42,1.42,0,0,0-.85-.65,1.4,1.4,0,0,0-1.06.14,34.22,34.22,0,0,0-17,29.51,1.39,1.39,0,0,0,1.39,1.4H30.48A1.39,1.39,0,0,0,31.87,44.06Z"/><path class="cls-2" d="M52,55.09a1.4,1.4,0,0,0-.85-.66,1.45,1.45,0,0,0-1.06.14,12.28,12.28,0,0,1-12.14,0,1.45,1.45,0,0,0-1.06-.14,1.4,1.4,0,0,0-.85.66L26.47,71.67A1.39,1.39,0,0,0,27,73.58a34.05,34.05,0,0,0,34.08,0,1.39,1.39,0,0,0,.51-1.91Z"/><path class="cls-2" d="M35.78,44.06A8.24,8.24,0,1,0,44,35.83,8.25,8.25,0,0,0,35.78,44.06Z"/></g></g></svg>