<?xml version="1.0" encoding="utf-8"?>
<!-- Generator: Adobe Illustrator 25.0.1, SVG Export Plug-In . SVG Version: 6.00 Build 0)  -->
<svg version="1.1" id="Layer_5" xmlns="http://www.w3.org/2000/svg" xmlns:xlink="http://www.w3.org/1999/xlink" x="0px" y="0px"
	 viewBox="0 0 44.61 62.39" style="enable-background:new 0 0 44.61 62.39;" xml:space="preserve">
<g>
	<g>
		<path d="M22.59,62.34c-12.13,0-22-10.13-22-22.58c0-9.97,13.68-30.25,19.56-38.5C20.71,0.47,21.62,0,22.59,0
			c0.97,0,1.88,0.47,2.44,1.26c5.88,8.25,19.56,28.53,19.56,38.5C44.59,52.21,34.72,62.34,22.59,62.34z M22.59,2
			c-0.33,0-0.62,0.15-0.81,0.42C17.27,8.74,2.59,30.1,2.59,39.76c0,11.35,8.97,20.58,20,20.58s20-9.23,20-20.58
			c0-9.66-14.69-31.02-19.19-37.34C23.21,2.15,22.91,2,22.59,2z"/>
	</g>
	<g>
		<path d="M22.59,56.05c-0.55,0-1-0.45-1-1s0.45-1,1-1c4.69,0,9.01-2.45,11.56-6.56c0.29-0.47,0.91-0.61,1.38-0.32
			c0.47,0.29,0.61,0.91,0.32,1.38C32.93,53.24,27.97,56.05,22.59,56.05z"/>
	</g>
	<g>
		<path d="M36.66,45.34c-0.1,0-0.19-0.01-0.29-0.04c-0.53-0.16-0.83-0.72-0.67-1.25c0.42-1.38,0.63-2.83,0.63-4.29
			c0-0.55,0.45-1,1-1s1,0.45,1,1c0,1.66-0.24,3.3-0.72,4.87C37.49,45.06,37.09,45.34,36.66,45.34z"/>
	</g>
</g>
</svg>
