<svg xmlns="http://www.w3.org/2000/svg" viewBox="0 0 87.46 106.68"><defs><style>.cls-1{fill:#444;}</style></defs><g id="Layer_2" data-name="Layer 2"><g id="Layer_3" data-name="Layer 3"><path class="cls-1" d="M85,65.43H2.49a2,2,0,0,1-2-2V44.58a2,2,0,0,1,2-2H85a2,2,0,0,1,2,2V63.43A2,2,0,0,1,85,65.43Zm-80.49-4H83V46.58H4.49Z"/><path class="cls-1" d="M68.05,106.68H61.37v-4h5L74,65.43H13.52l7.53,37.25H64.59v4H19.42a2,2,0,0,1-2-1.61L9.11,63.83a2,2,0,0,1,2-2.4H76.39a2,2,0,0,1,2,2.4L70,105.07A2,2,0,0,1,68.05,106.68Z"/><path class="cls-1" d="M26.93,26.27a20.82,20.82,0,0,1-8.39-1.65C7.43,19.74.56,8.2.28,7.71a2,2,0,0,1,.82-2.8c.68-.34,16.68-8.25,28.05-3.26S45.37,18.3,45.58,18.79a2,2,0,0,1-.85,2.51C44.27,21.56,35.93,26.27,26.93,26.27ZM5,7.56C7.29,10.87,12.76,17.71,20.15,21c7.55,3.32,17.12-.47,20.92-2.27C39.36,15.5,35,8.56,27.54,5.31S9.4,5.71,5,7.56Z"/><path class="cls-1" d="M60.53,26.27c-9,0-17.34-4.71-17.79-5a2,2,0,0,1-.85-2.51c.2-.49,5.18-12.21,16.43-17.14s27.37,2.92,28,3.26a2,2,0,0,1,1,1.22,2,2,0,0,1-.19,1.58c-.29.49-7.16,12-18.26,16.91A20.83,20.83,0,0,1,60.53,26.27ZM46.4,18.67c3.81,1.8,13.39,5.59,20.92,2.28S80.18,10.87,82.5,7.56C78.06,5.72,67.42,2,59.93,5.31S48.1,15.49,46.4,18.67Z"/><rect class="cls-1" x="41.73" y="19.56" width="4" height="25.02"/></g></g></svg>