<svg width="74" height="66" viewBox="0 0 74 66" fill="none" xmlns="http://www.w3.org/2000/svg">
<path d="M42.4782 20.4028C42.1696 20.4028 41.8737 20.2802 41.6555 20.062C41.4373 19.8438 41.3147 19.5479 41.3147 19.2393V1.74053C41.3147 1.43195 41.4373 1.13602 41.6555 0.917821C41.8737 0.699626 42.1696 0.577045 42.4782 0.577045C42.7868 0.577045 43.0827 0.699626 43.3009 0.917821C43.5191 1.13602 43.6417 1.43195 43.6417 1.74053V19.2393C43.6417 19.5479 43.5191 19.8438 43.3009 20.062C43.0827 20.2802 42.7868 20.4028 42.4782 20.4028Z" fill="#F5821F"/>
<path d="M55.8195 2.81869H42.4783V7.72858V12.6307H55.8195L53.5546 7.72858L55.8195 2.81869Z" fill="#F5821F"/>
<path d="M55.8195 13.4064H42.4783C42.2726 13.4064 42.0753 13.3246 41.9298 13.1792C41.7844 13.0337 41.7026 12.8364 41.7026 12.6307V2.81869C41.7026 2.61297 41.7844 2.41568 41.9298 2.27022C42.0753 2.12475 42.2726 2.04303 42.4783 2.04303H55.8195C55.9493 2.04401 56.0767 2.07751 56.1901 2.14047C56.3036 2.20343 56.3994 2.29385 56.4689 2.40343C56.5383 2.51301 56.5792 2.63827 56.5877 2.76773C56.5962 2.89719 56.5721 3.02672 56.5176 3.14446L54.4079 7.72858L56.5176 12.3049C56.5721 12.4227 56.5962 12.5522 56.5877 12.6817C56.5792 12.8111 56.5383 12.9364 56.4689 13.046C56.3994 13.1556 56.3036 13.246 56.1901 13.3089C56.0767 13.3719 55.9493 13.4054 55.8195 13.4064V13.4064ZM43.2539 11.8551H54.6018L52.8488 8.05435C52.8015 7.95225 52.7771 7.84109 52.7771 7.72858C52.7771 7.61607 52.8015 7.50491 52.8488 7.4028L54.6018 3.59434H43.2539V11.8551Z" fill="#F5821F"/>
<path d="M71.829 65.5769H14.8572C14.6154 65.5771 14.3779 65.5127 14.1694 65.3903C13.9608 65.268 13.7887 65.0921 13.6709 64.881C13.553 64.6698 13.4937 64.431 13.4991 64.1893C13.5045 63.9475 13.5744 63.7116 13.7015 63.5059L42.1758 17.4087C42.2964 17.208 42.467 17.0418 42.6709 16.9265C42.8747 16.8111 43.105 16.7505 43.3392 16.7505C43.5735 16.7505 43.8038 16.8111 44.0076 16.9265C44.2115 17.0418 44.3821 17.208 44.5027 17.4087L72.8917 63.3508C73.0916 63.5962 73.2012 63.9029 73.2019 64.2195C73.202 64.3991 73.1663 64.5768 73.0972 64.7425C73.028 64.9083 72.9266 65.0586 72.7989 65.1848C72.6712 65.3111 72.5197 65.4107 72.3533 65.478C72.1868 65.5453 72.0086 65.5789 71.829 65.5769ZM17.285 62.8621H69.378L43.3315 20.7441L17.285 62.8621Z" fill="#333333"/>
<path d="M14.8572 65.5769H1.39185C1.1507 65.5769 0.913838 65.513 0.705383 65.3918C0.496927 65.2705 0.324312 65.0962 0.205103 64.8866C0.0831602 64.6769 0.0189209 64.4387 0.0189209 64.1962C0.0189209 63.9537 0.0831602 63.7155 0.205103 63.5059L22.1561 27.9809C22.2768 27.7801 22.4473 27.614 22.6512 27.4986C22.8551 27.3833 23.0854 27.3227 23.3196 27.3227C23.5539 27.3227 23.7841 27.3833 23.988 27.4986C24.1919 27.614 24.3624 27.7801 24.4831 27.9809L31.2158 38.8401C31.3491 39.0542 31.4198 39.3014 31.4198 39.5537C31.4198 39.8059 31.3491 40.0532 31.2158 40.2673L16.0052 64.9564C15.883 65.1494 15.7133 65.3079 15.5122 65.4166C15.3112 65.5252 15.0857 65.5804 14.8572 65.5769V65.5769ZM3.82741 62.8621H14.0971L28.4777 39.5925L23.3429 31.2774L3.82741 62.8621Z" fill="#333333"/>
<path d="M31.3477 45.9606C30.2128 45.972 29.0797 45.8681 27.9659 45.6503C27.7893 45.6128 27.622 45.5403 27.4737 45.4373C27.3254 45.3343 27.1992 45.2027 27.1024 45.0503C27.0056 44.8979 26.9402 44.7277 26.91 44.5497C26.8798 44.3717 26.8854 44.1895 26.9265 44.0137C27.0063 43.6624 27.221 43.3566 27.5243 43.1621C27.8275 42.9677 28.1951 42.9002 28.5476 42.9743V42.9743C28.8889 43.0519 37.0178 44.7118 42.5792 38.3747C45.1001 35.5125 47.714 34 50.3357 33.8681C52.1288 33.7732 53.8914 34.3607 55.2689 35.5125C55.5322 35.7583 55.6871 36.0987 55.6995 36.4587C55.7118 36.8188 55.5807 37.1689 55.3348 37.4323C55.089 37.6956 54.7486 37.8505 54.3886 37.8628C54.0286 37.8752 53.6784 37.744 53.4151 37.4982C52.5691 36.8498 51.5154 36.5326 50.4521 36.6062C48.5828 36.7225 46.6204 37.9248 44.6269 40.1897C42.9622 42.0544 40.913 43.5359 38.6205 44.5322C36.328 45.5284 33.8467 46.0158 31.3477 45.9606V45.9606Z" fill="#333333"/>
</svg>
