<svg width="84" height="66" viewBox="0 0 84 66" fill="none" xmlns="http://www.w3.org/2000/svg">
<path d="M12.0521 46.8924C11.9914 47.0137 10.7182 53.3699 11.0415 53.6225C11.3649 53.8751 15.7708 58.9682 15.9022 59.0996C16.0335 59.2309 28.7864 63.0507 28.7864 63.0507C28.7864 63.0507 39.2251 64.6979 39.4373 64.6575C39.6495 64.617 50.2601 62.7577 50.5531 62.7577C50.8462 62.7577 61.7497 58.5943 61.7497 58.5943L66.8024 53.289C66.9641 53.1173 64.8622 46.5892 64.8622 46.5892C64.8622 46.5892 62.1641 49.6208 61.8306 49.8735C61.4971 50.1261 52.1598 53.1274 52.0285 53.2486C51.8971 53.3699 43.3177 56.068 43.1864 56.068C43.055 56.068 34.0916 55.5627 33.3742 55.6234C30.6411 55.5262 27.9153 55.2799 25.2091 54.8857C24.7847 54.6735 20.2777 52.4907 19.7725 52.1067L13.0828 47.0541L12.0521 46.8924Z" fill="#F5821F"/>
<path d="M76.7458 51.6015C74.8561 52.1572 75.6646 59.4532 76.5336 60.4031C77.4027 61.353 79.454 61.3025 80.5757 60.4031C81.0873 60.0214 81.4456 59.4695 81.5863 58.8469C81.6873 57.5434 78.5648 51.1063 76.7458 51.6015Z" fill="#F5821F"/>
<path d="M38.9017 42.7897C38.0653 42.8071 37.2371 42.6234 36.4865 42.2541L1.52228 23.7514C1.12463 23.5755 0.78263 23.2942 0.533278 22.938C0.283925 22.5818 0.136706 22.1641 0.107544 21.7303C0.133583 21.2969 0.278422 20.8791 0.526187 20.5226C0.773952 20.1661 1.11508 19.8847 1.51218 19.7093L36.4865 1.11556C37.2297 0.761033 38.0428 0.577045 38.8663 0.577045C39.6898 0.577045 40.5028 0.761033 41.2461 1.11556L76.2911 19.6284C76.6908 19.8015 77.0346 20.082 77.2844 20.4388C77.5341 20.7956 77.68 21.2147 77.7059 21.6495C77.6767 22.0833 77.5295 22.5009 77.2801 22.8571C77.0308 23.2134 76.6888 23.4946 76.2911 23.6705L41.2865 42.2541C40.5448 42.618 39.7277 42.8015 38.9017 42.7897V42.7897ZM3.02797 21.6899L37.7092 39.9905C38.0875 40.1532 38.4949 40.237 38.9067 40.237C39.3185 40.237 39.7259 40.1532 40.1042 39.9905V39.9905L74.7854 21.6899L40.1042 3.34883C39.7259 3.18618 39.3185 3.1023 38.9067 3.1023C38.4949 3.1023 38.0875 3.18618 37.7092 3.34883L3.02797 21.6899Z" fill="#303030"/>
<path d="M38.9018 65.577C16.5085 65.577 9.87946 54.2996 9.59651 53.8145C9.4442 53.5484 9.39391 53.2359 9.45504 52.9354L14.4268 29.5417C14.4653 29.35 14.548 29.17 14.6684 29.016C14.7888 28.8621 14.9436 28.7384 15.1204 28.6549C15.2971 28.5715 15.491 28.5305 15.6864 28.5353C15.8818 28.5402 16.0734 28.5906 16.2458 28.6827L38.9018 40.6575L61.5477 28.6827C61.7242 28.5977 61.9176 28.5535 62.1136 28.5535C62.3095 28.5535 62.5029 28.5977 62.6795 28.6827C62.8563 28.7673 63.0112 28.8915 63.1322 29.0458C63.2531 29.2 63.3368 29.3801 63.3767 29.572L68.3384 52.9657C68.4075 53.2648 68.3605 53.579 68.207 53.8448C67.9342 54.2996 61.3051 65.577 38.9018 65.577ZM12.0521 52.9455C13.3759 54.7947 20.3384 63.0507 38.9018 63.0507C57.4651 63.0507 64.4479 54.8149 65.7616 52.9455L61.2546 31.7244L39.5182 43.1939C39.3369 43.2929 39.1336 43.3449 38.927 43.3449C38.7205 43.3449 38.5172 43.2929 38.3359 43.1939L16.559 31.6941L12.0521 52.9455Z" fill="#303030"/>
<path d="M38.9017 57.5434C20.0958 57.5434 11.6175 47.0945 11.2739 46.6499C11.1684 46.5205 11.0894 46.3716 11.0415 46.2117C10.9935 46.0518 10.9775 45.884 10.9944 45.7179C11.0113 45.5518 11.0608 45.3907 11.1399 45.2437C11.2191 45.0967 11.3264 44.9668 11.4558 44.8613C11.5852 44.7558 11.7341 44.6768 11.894 44.6288C12.0539 44.5809 12.2217 44.5649 12.3878 44.5818C12.5539 44.5987 12.715 44.6481 12.862 44.7273C13.009 44.8064 13.139 44.9138 13.2445 45.0432V45.0432C13.3253 45.1442 21.3792 54.9766 38.9017 54.9766C56.4243 54.9766 64.4883 45.1846 64.559 45.0432C64.7667 44.7751 65.0724 44.6006 65.4087 44.558C65.7451 44.5153 66.0847 44.6081 66.3527 44.8158C66.6207 45.0235 66.7952 45.3292 66.8378 45.6655C66.8805 46.0019 66.7877 46.3415 66.58 46.6095C66.196 47.0642 57.7076 57.5434 38.9017 57.5434Z" fill="#303030"/>
<path d="M76.4832 44.5177C76.1482 44.5177 75.8269 44.3846 75.59 44.1477C75.3531 43.9108 75.22 43.5895 75.22 43.2545V22.953H42.1051C41.7701 22.953 41.4488 22.82 41.2119 22.5831C40.975 22.3462 40.8419 22.0249 40.8419 21.6899C40.8419 21.3549 40.975 21.0336 41.2119 20.7967C41.4488 20.5598 41.7701 20.4267 42.1051 20.4267H76.463C76.798 20.4267 77.1193 20.5598 77.3562 20.7967C77.5931 21.0336 77.7261 21.3549 77.7261 21.6899V43.2545C77.7262 43.5861 77.5959 43.9043 77.3633 44.1406C77.1308 44.377 76.8147 44.5124 76.4832 44.5177V44.5177Z" fill="#303030"/>
<path d="M38.9016 24.8831C38.0177 24.8831 37.1538 24.6209 36.4191 24.1297C35.6843 23.6385 35.1118 22.9403 34.7741 22.1235C34.4363 21.3068 34.3485 20.4082 34.5216 19.5415C34.6948 18.6748 35.1212 17.879 35.7469 17.2547C36.3725 16.6305 37.1693 16.2059 38.0364 16.0347C38.9035 15.8635 39.8019 15.9534 40.6179 16.293C41.4338 16.6326 42.1307 17.2067 42.6203 17.9425C43.1098 18.6784 43.3701 19.5429 43.3681 20.4267C43.3654 21.6096 42.8937 22.7431 42.0563 23.5785C41.219 24.414 40.0844 24.8831 38.9016 24.8831V24.8831ZM38.9016 18.4865C38.5178 18.4865 38.1427 18.6003 37.8237 18.8135C37.5046 19.0267 37.2559 19.3297 37.1091 19.6842C36.9622 20.0388 36.9238 20.4289 36.9986 20.8052C37.0735 21.1816 37.2583 21.5273 37.5296 21.7987C37.801 22.07 38.1467 22.2548 38.5231 22.3297C38.8994 22.4045 39.2895 22.3661 39.6441 22.2192C39.9986 22.0724 40.3016 21.8237 40.5148 21.5046C40.728 21.1856 40.8418 20.8105 40.8418 20.4267C40.8418 19.9121 40.6374 19.4186 40.2735 19.0548C39.9097 18.6909 39.4162 18.4865 38.9016 18.4865Z" fill="#303030"/>
<path d="M79.6258 35.9484C79.6258 36.57 79.4415 37.1776 79.0962 37.6944C78.7508 38.2112 78.26 38.6141 77.6858 38.8519C77.1115 39.0898 76.4796 39.152 75.87 39.0308C75.2603 38.9095 74.7003 38.6102 74.2608 38.1707C73.8213 37.7311 73.522 37.1712 73.4007 36.5615C73.2795 35.9519 73.3417 35.32 73.5796 34.7457C73.8174 34.1715 74.2202 33.6807 74.7371 33.3353C75.2539 32.99 75.8615 32.8057 76.4831 32.8057C77.3166 32.8057 78.1159 33.1368 78.7053 33.7262C79.2947 34.3155 79.6258 35.1149 79.6258 35.9484V35.9484Z" fill="#303030"/>
<path d="M76.4831 62.1312C76.175 62.1308 75.8773 62.0196 75.6444 61.8179C75.5103 61.6988 75.403 61.5525 75.3299 61.3887C75.2567 61.2249 75.2192 61.0474 75.22 60.868V42.6785C75.22 42.3435 75.3531 42.0222 75.5899 41.7853C75.8268 41.5484 76.1481 41.4154 76.4831 41.4154C76.8182 41.4154 77.1394 41.5484 77.3763 41.7853C77.6132 42.0222 77.7463 42.3435 77.7463 42.6785C77.9158 48.6814 79.8642 54.4987 83.3446 59.3926C83.4782 59.5713 83.5633 59.7816 83.5917 60.0029C83.62 60.2243 83.5906 60.4492 83.5063 60.6558C83.4206 60.8616 83.282 61.041 83.1045 61.1759C82.927 61.3108 82.717 61.3963 82.4958 61.4238L76.6347 62.0907L76.4831 62.1312ZM77.7463 54.5724V59.4533L80.1311 59.1905C79.2227 57.7125 78.4255 56.1688 77.7463 54.5724V54.5724Z" fill="#303030"/>
<path d="M38.9017 22.953C40.2969 22.953 41.428 21.822 41.428 20.4267C41.428 19.0315 40.2969 17.9004 38.9017 17.9004C37.5064 17.9004 36.3754 19.0315 36.3754 20.4267C36.3754 21.822 37.5064 22.953 38.9017 22.953Z" fill="#F5821F"/>
</svg>
