<?xml version="1.0" encoding="utf-8"?>
<!-- Generator: Adobe Illustrator 25.0.1, SVG Export Plug-In . SVG Version: 6.00 Build 0)  -->
<svg version="1.1" id="Layer_6" xmlns="http://www.w3.org/2000/svg" xmlns:xlink="http://www.w3.org/1999/xlink" x="0px" y="0px"
	 viewBox="0 0 68.17 76.42" style="enable-background:new 0 0 68.17 76.42;" xml:space="preserve">
<style type="text/css">
	.st0{fill:#FFFFFF;}
	.st1{fill:#333333;}
</style>
<g>
	<g id="XMLID_592_">
		<line class="st0" x1="23.81" y1="27.4" x2="24.52" y2="74.63"/>
		<path class="st1" d="M24.52,75.63c-0.54,0-0.99-0.44-1-0.98l-0.71-47.24c-0.01-0.55,0.43-1.01,0.98-1.02
			c0.56,0.01,1.01,0.43,1.02,0.98l0.71,47.24c0.01,0.55-0.43,1.01-0.98,1.02C24.53,75.63,24.53,75.63,24.52,75.63z"/>
	</g>
	<g id="XMLID_586_">
		<path class="st1" d="M27.45,26.5h-7.78c-0.3,0-0.58-0.13-0.77-0.36s-0.27-0.52-0.22-0.82l4.28-24.5C23.05,0.35,23.46,0,23.95,0
			c0,0,0.01,0,0.02,0c0.49,0.01,0.9,0.37,0.97,0.86l3.5,24.5c0.04,0.29-0.04,0.58-0.23,0.8C28.01,26.37,27.74,26.5,27.45,26.5z
			 M20.86,24.5h5.43L23.85,7.38L20.86,24.5z"/>
	</g>
	<g id="XMLID_590_">
		<path class="st1" d="M1.17,41.31c-0.35,0-0.69-0.19-0.87-0.51c-0.24-0.43-0.13-0.97,0.26-1.27l19.47-15.28
			c0.23-0.18,0.52-0.25,0.81-0.2c0.28,0.06,0.53,0.23,0.68,0.48l3.89,6.73c0.15,0.26,0.17,0.56,0.07,0.84
			c-0.1,0.28-0.32,0.5-0.6,0.6L1.51,41.25C1.4,41.29,1.28,41.31,1.17,41.31z M20.34,26.53L6.74,37.2l16.32-5.97L20.34,26.53z"/>
	</g>
	<g id="XMLID_591_">
		<path class="st1" d="M46.31,41.55c-0.12,0-0.25-0.02-0.37-0.07l-22.97-9.22c-0.27-0.11-0.48-0.33-0.57-0.6s-0.07-0.58,0.08-0.83
			l3.89-6.73c0.15-0.26,0.4-0.43,0.69-0.48c0.29-0.05,0.59,0.03,0.82,0.22l19.08,15.95c0.38,0.32,0.47,0.86,0.22,1.28
			C46.99,41.37,46.66,41.55,46.31,41.55z M24.79,30.83l16.05,6.44L27.5,26.13L24.79,30.83z"/>
	</g>
	<g id="XMLID_375_">
		<circle class="st0" cx="23.81" cy="27.4" r="4.14"/>
		<path class="st1" d="M23.81,32.53c-2.83,0-5.14-2.31-5.14-5.14s2.3-5.14,5.14-5.14s5.14,2.3,5.14,5.14S26.64,32.53,23.81,32.53z
			 M23.81,24.26c-1.73,0-3.14,1.41-3.14,3.14c0,1.73,1.41,3.14,3.14,3.14c1.73,0,3.14-1.41,3.14-3.14
			C26.95,25.67,25.54,24.26,23.81,24.26z"/>
	</g>
	<g id="XMLID_597_">
		<line class="st0" x1="52.77" y1="45.73" x2="53.05" y2="74.63"/>
		<path class="st1" d="M53.05,75.63c-0.55,0-0.99-0.44-1-0.99l-0.29-28.9c-0.01-0.55,0.44-1,0.99-1.01c0,0,0.01,0,0.01,0
			c0.55,0,0.99,0.44,1,0.99l0.29,28.9C54.06,75.18,53.62,75.63,53.05,75.63C53.06,75.63,53.06,75.63,53.05,75.63z"/>
	</g>
	<g id="XMLID_596_">
		<path class="st1" d="M55.11,44.5h-4.97c-0.3,0-0.58-0.13-0.77-0.36s-0.27-0.52-0.22-0.82l2.73-15.66c0.08-0.48,0.5-0.83,0.99-0.83
			c0,0,0.01,0,0.02,0c0.49,0.01,0.9,0.37,0.97,0.86l2.24,15.66c0.04,0.29-0.04,0.58-0.23,0.8C55.68,44.37,55.4,44.5,55.11,44.5z
			 M51.33,42.5h2.63l-1.18-8.28L51.33,42.5z"/>
	</g>
	<g id="XMLID_595_">
		<path class="st1" d="M38.31,54.6c-0.35,0-0.69-0.19-0.87-0.51c-0.24-0.43-0.13-0.97,0.26-1.27l12.45-9.77
			c0.23-0.18,0.52-0.25,0.81-0.2c0.28,0.06,0.53,0.23,0.68,0.48l2.49,4.31c0.15,0.26,0.17,0.56,0.07,0.84
			c-0.1,0.28-0.32,0.5-0.6,0.6l-14.93,5.46C38.54,54.58,38.42,54.6,38.31,54.6z M50.46,45.33l-6.58,5.17l7.9-2.89L50.46,45.33z"/>
	</g>
	<g id="XMLID_594_">
		<path class="st1" d="M67.17,54.75c-0.12,0-0.25-0.02-0.37-0.07l-14.68-5.89c-0.27-0.11-0.48-0.33-0.57-0.6s-0.07-0.58,0.08-0.83
			l2.49-4.31c0.15-0.26,0.4-0.43,0.69-0.48c0.29-0.05,0.59,0.03,0.82,0.22l12.2,10.2c0.38,0.32,0.47,0.86,0.22,1.28
			C67.84,54.57,67.51,54.75,67.17,54.75z M53.93,47.36l7.76,3.12l-6.45-5.39L53.93,47.36z"/>
	</g>
	<g id="XMLID_593_">
		<path class="st0" d="M55.86,45.73c0,1.71-1.39,3.1-3.1,3.1s-3.1-1.39-3.1-3.1c0-1.71,1.39-3.1,3.1-3.1S55.86,44.02,55.86,45.73z"
			/>
		<path class="st1" d="M52.77,49.83c-2.26,0-4.1-1.84-4.1-4.1s1.84-4.1,4.1-4.1s4.1,1.84,4.1,4.1S55.03,49.83,52.77,49.83z
			 M52.77,43.63c-1.16,0-2.1,0.94-2.1,2.1s0.94,2.1,2.1,2.1s2.1-0.94,2.1-2.1S53.92,43.63,52.77,43.63z"/>
	</g>
	<g id="XMLID_598_">
		<line class="st0" x1="12.67" y1="75.5" x2="63.67" y2="75.5"/>
		<path class="st1" d="M63.67,76.5h-51c-0.55,0-1-0.45-1-1s0.45-1,1-1h51c0.55,0,1,0.45,1,1S64.22,76.5,63.67,76.5z"/>
	</g>
</g>
</svg>
