<?xml version="1.0" encoding="utf-8"?>
<!-- Generator: Adobe Illustrator 25.0.1, SVG Export Plug-In . SVG Version: 6.00 Build 0)  -->
<svg version="1.1" id="Layer_3" xmlns="http://www.w3.org/2000/svg" xmlns:xlink="http://www.w3.org/1999/xlink" x="0px" y="0px"
	 viewBox="0 0 87.46 106.68" style="enable-background:new 0 0 87.46 106.68;" xml:space="preserve">
<style type="text/css">
	.st0{fill:#444444;}
</style>
<g>
	<path class="st0" d="M84.98,65.43H2.49c-1.1,0-2-0.9-2-2V44.58c0-1.1,0.9-2,2-2h82.48c1.1,0,2,0.9,2,2v18.86
		C86.98,64.54,86.08,65.43,84.98,65.43z M4.49,61.43h78.48V46.58H4.49V61.43z"/>
	<path class="st0" d="M68.05,106.68h-6.67v-4h5.04l7.53-37.24H13.52l7.53,37.24h43.54v4H19.42c-0.95,0-1.77-0.67-1.96-1.6
		L9.11,63.83c-0.12-0.59,0.03-1.2,0.41-1.66c0.38-0.46,0.95-0.73,1.55-0.73h65.32c0.6,0,1.17,0.27,1.55,0.73
		c0.38,0.46,0.53,1.08,0.41,1.66l-8.34,41.24C69.82,106,69,106.68,68.05,106.68z"/>
	<path class="st0" d="M26.93,26.27c-2.81,0-5.68-0.46-8.39-1.65C7.43,19.74,0.56,8.2,0.28,7.71C0,7.23-0.07,6.66,0.08,6.13
		C0.24,5.6,0.61,5.16,1.1,4.91c0.68-0.34,16.67-8.25,28.04-3.26C40.39,6.58,45.37,18.3,45.58,18.79c0.39,0.93,0.02,2-0.85,2.5
		C44.27,21.56,35.93,26.27,26.93,26.27z M4.96,7.56c2.33,3.31,7.8,10.15,15.18,13.39c7.55,3.31,17.12-0.47,20.92-2.28
		C39.36,15.5,34.95,8.56,27.54,5.31C20.02,2.01,9.4,5.71,4.96,7.56z"/>
	<path class="st0" d="M60.53,26.27c-9,0-17.34-4.71-17.8-4.97c-0.87-0.5-1.24-1.57-0.85-2.5c0.21-0.5,5.19-12.21,16.43-17.15
		c11.37-4.99,27.37,2.92,28.04,3.26c0.49,0.25,0.86,0.69,1.02,1.22c0.16,0.53,0.09,1.1-0.19,1.58C86.9,8.2,80.03,19.74,68.93,24.62
		C66.21,25.81,63.34,26.27,60.53,26.27z M46.4,18.67c3.81,1.8,13.39,5.59,20.92,2.28c7.4-3.25,12.86-10.08,15.18-13.39
		c-4.44-1.84-15.08-5.54-22.58-2.25C52.52,8.56,48.1,15.49,46.4,18.67z"/>
	<rect x="41.73" y="19.56" class="st0" width="4" height="25.02"/>
</g>
</svg>
