<svg width="66" height="66" viewBox="0 0 66 66" fill="none" xmlns="http://www.w3.org/2000/svg">
<path d="M32.8647 34.3768H23.6984C23.4957 34.3774 23.2956 34.3304 23.1143 34.2397C22.933 34.149 22.7755 34.017 22.6545 33.8543C22.5334 33.6917 22.4522 33.5029 22.4174 33.3032C22.3825 33.1034 22.395 32.8983 22.4538 32.7043C22.7035 31.8928 22.7592 31.034 22.6165 30.197C22.4738 29.36 22.1367 28.5682 21.6322 27.8853C21.1278 27.2023 20.4701 26.6473 19.7121 26.2648C18.9541 25.8823 18.1169 25.6831 17.2678 25.6831C16.4187 25.6831 15.5815 25.8823 14.8235 26.2648C14.0655 26.6473 13.4078 27.2023 12.9034 27.8853C12.3989 28.5682 12.0618 29.36 11.9191 30.197C11.7764 31.034 11.8322 31.8928 12.0818 32.7043C12.1406 32.8983 12.1531 33.1034 12.1182 33.3032C12.0834 33.5029 12.0022 33.6917 11.8811 33.8543C11.7601 34.017 11.6026 34.149 11.4213 34.2397C11.24 34.3304 11.0399 34.3774 10.8372 34.3768H1.65795C1.3141 34.3768 0.984327 34.2402 0.741186 33.9971C0.498045 33.7539 0.36145 33.4241 0.36145 33.0803V1.87354C0.36145 1.52969 0.498045 1.19992 0.741186 0.956781C0.984327 0.713641 1.3141 0.577045 1.65795 0.577045L32.8647 0.577045C33.2085 0.577045 33.5383 0.713641 33.7815 0.956781C34.0246 1.19992 34.1612 1.52969 34.1612 1.87354V11.0398H31.5682V3.17004H2.95445V31.7838H9.2684C9.2684 31.5699 9.2684 31.3495 9.2684 31.1355C9.2684 30.0825 9.47581 29.0397 9.8788 28.0669C10.2818 27.094 10.8724 26.21 11.6171 25.4654C12.3617 24.7207 13.2457 24.1301 14.2186 23.7271C15.1915 23.3241 16.2342 23.1167 17.2872 23.1167C18.3403 23.1167 19.383 23.3241 20.3559 23.7271C21.3288 24.1301 22.2128 24.7207 22.9574 25.4654C23.7021 26.21 24.2927 27.094 24.6957 28.0669C25.0987 29.0397 25.3061 30.0825 25.3061 31.1355C25.3061 31.3495 25.3061 31.5634 25.3061 31.7838H31.6201V23.914H34.213V33.0803C34.2132 33.255 34.178 33.4279 34.1096 33.5887C34.0413 33.7495 33.9411 33.8948 33.8152 34.0159C33.6892 34.137 33.5401 34.2314 33.3768 34.2934C33.2134 34.3554 33.0393 34.3838 32.8647 34.3768V34.3768Z" fill="#444444"/>
<path d="M32.8647 65.577H1.65795C1.3141 65.577 0.984327 65.4405 0.741186 65.1973C0.498045 64.9542 0.36145 64.6244 0.36145 64.2805V33.0803C0.36145 32.7364 0.498045 32.4067 0.741186 32.1635C0.984327 31.9204 1.3141 31.7838 1.65795 31.7838H10.8242V34.3768H2.95445V62.984H31.5682V56.6766C31.3478 56.6766 31.1339 56.6766 30.9199 56.6766C29.8473 56.7071 28.7794 56.5221 27.7795 56.1327C26.7795 55.7433 25.8678 55.1573 25.0983 54.4093C24.3288 53.6614 23.7171 52.7667 23.2994 51.7783C22.8818 50.7898 22.6665 49.7276 22.6665 48.6545C22.6665 47.5814 22.8818 46.5192 23.2994 45.5307C23.7171 44.5423 24.3288 43.6476 25.0983 42.8997C25.8678 42.1517 26.7795 41.5657 27.7795 41.1763C28.7794 40.7868 29.8473 40.6019 30.9199 40.6324C31.1339 40.6324 31.3478 40.6324 31.5682 40.6324V34.3768H23.6984V31.7838H32.8647C33.2085 31.7838 33.5383 31.9204 33.7815 32.1635C34.0246 32.4067 34.1612 32.7364 34.1612 33.0803V42.2465C34.1608 42.4487 34.1131 42.648 34.0219 42.8285C33.9307 43.009 33.7986 43.1656 33.6361 43.2859C33.4736 43.4062 33.2852 43.4869 33.086 43.5214C32.8868 43.5559 32.6822 43.5433 32.4887 43.4847C31.6755 43.2311 30.814 43.1723 29.9739 43.313C29.1338 43.4537 28.3385 43.7901 27.6524 44.2949C26.9662 44.7996 26.4083 45.4587 26.0239 46.2188C25.6394 46.979 25.4391 47.8189 25.4391 48.6707C25.4391 49.5225 25.6394 50.3624 26.0239 51.1226C26.4083 51.8827 26.9662 52.5418 27.6524 53.0465C28.3385 53.5513 29.1338 53.8876 29.9739 54.0284C30.814 54.1691 31.6755 54.1103 32.4887 53.8567C32.6822 53.7981 32.8868 53.7855 33.086 53.82C33.2852 53.8545 33.4736 53.9351 33.6361 54.0555C33.7986 54.1758 33.9307 54.3324 34.0219 54.5129C34.1131 54.6934 34.1608 54.8927 34.1612 55.0949V64.2805C34.1612 64.6244 34.0246 64.9542 33.7815 65.1973C33.5383 65.4405 33.2085 65.577 32.8647 65.577Z" fill="#444444"/>
<path d="M64.065 34.3768H54.8987V31.7838H62.7685V3.17004H34.1612V9.484C34.3752 9.484 34.5891 9.484 34.8095 9.484C35.8625 9.484 36.9053 9.69141 37.8782 10.0944C38.8511 10.4974 39.7351 11.088 40.4797 11.8327C41.2243 12.5773 41.815 13.4613 42.2179 14.4342C42.6209 15.4071 42.8283 16.4498 42.8283 17.5028C42.8283 18.5559 42.6209 19.5986 42.2179 20.5715C41.815 21.5444 41.2243 22.4284 40.4797 23.173C39.7351 23.9176 38.8511 24.5083 37.8782 24.9113C36.9053 25.3143 35.8625 25.5217 34.8095 25.5217C34.5891 25.5217 34.3752 25.5217 34.1612 25.5217V31.8356H42.031V34.4286H32.8647C32.5209 34.4286 32.1911 34.292 31.948 34.0489C31.7048 33.8058 31.5682 33.476 31.5682 33.1321V23.914C31.5676 23.7113 31.6146 23.5112 31.7053 23.3299C31.7961 23.1486 31.9281 22.9911 32.0907 22.8701C32.2534 22.749 32.4421 22.6678 32.6419 22.633C32.8416 22.5981 33.0467 22.6106 33.2407 22.6694C33.9872 22.8957 34.7737 22.9584 35.5466 22.8532C36.3195 22.748 37.0606 22.4774 37.7194 22.0599C38.3783 21.6423 38.9393 21.0876 39.3644 20.4336C39.7894 19.7796 40.0685 19.0416 40.1825 18.2699C40.2965 17.4983 40.2428 16.7111 40.025 15.9621C39.8072 15.2131 39.4305 14.5199 38.9206 13.9297C38.4106 13.3394 37.7794 12.8661 37.07 12.5419C36.3605 12.2177 35.5895 12.0503 34.8095 12.0511C34.2758 12.0513 33.7451 12.13 33.2342 12.2844C33.0406 12.342 32.8362 12.3535 32.6373 12.3181C32.4385 12.2827 32.2506 12.2013 32.0888 12.0804C31.927 11.9595 31.7956 11.8024 31.7052 11.6217C31.6149 11.4411 31.5679 11.2418 31.5682 11.0398V1.87354C31.5682 1.52969 31.7048 1.19992 31.948 0.956781C32.1911 0.713641 32.5209 0.577045 32.8647 0.577045L64.065 0.577045C64.4089 0.577045 64.7386 0.713641 64.9818 0.956781C65.2249 1.19992 65.3615 1.52969 65.3615 1.87354V33.0803C65.3615 33.4241 65.2249 33.7539 64.9818 33.997C64.7386 34.2402 64.4089 34.3768 64.065 34.3768Z" fill="#444444"/>
<path d="M34.8095 25.4958C34.0233 25.4953 33.2414 25.3795 32.4888 25.1522L33.2407 22.6694C33.9872 22.8957 34.7737 22.9584 35.5466 22.8532C36.3195 22.748 37.0606 22.4774 37.7194 22.0599C38.3783 21.6423 38.9393 21.0876 39.3644 20.4336C39.7894 19.7796 40.0685 19.0416 40.1825 18.2699C40.2965 17.4983 40.2428 16.7111 40.025 15.9621C39.8072 15.2131 39.4306 14.5199 38.9206 13.9297C38.4107 13.3394 37.7794 12.8661 37.07 12.5419C36.3605 12.2177 35.5895 12.0503 34.8095 12.0511C34.2758 12.0513 33.7451 12.13 33.2343 12.2844L32.4888 9.80164C33.2408 9.57171 34.0231 9.4559 34.8095 9.45807C36.9362 9.45807 38.9759 10.3029 40.4797 11.8067C41.9835 13.3106 42.8284 15.3502 42.8284 17.4769C42.8284 19.6036 41.9835 21.6433 40.4797 23.1471C38.9759 24.6509 36.9362 25.4958 34.8095 25.4958V25.4958Z" fill="#444444"/>
<path d="M54.8987 33.0803C55.0922 33.7104 55.1905 34.3659 55.1904 35.025C55.1362 36.7726 54.4038 38.4305 53.1484 39.6475C51.8931 40.8645 50.2133 41.545 48.4648 41.545C46.7164 41.545 45.0366 40.8645 43.7813 39.6475C42.5259 38.4305 41.7935 36.7726 41.7392 35.025C41.7392 34.3659 41.8375 33.7104 42.031 33.0803H32.8647V42.2465C32.2345 42.0537 31.5791 41.9554 30.92 41.9548C30.0192 41.9269 29.1219 42.0801 28.2815 42.4055C27.4411 42.7309 26.6746 43.2219 26.0275 43.8491C25.3805 44.4764 24.866 45.2273 24.5147 46.0572C24.1633 46.8872 23.9823 47.7792 23.9823 48.6804C23.9823 49.5816 24.1633 50.4737 24.5147 51.3036C24.866 52.1335 25.3805 52.8844 26.0275 53.5117C26.6746 54.139 27.4411 54.6299 28.2815 54.9553C29.1219 55.2807 30.0192 55.434 30.92 55.406C31.5791 55.4055 32.2345 55.3072 32.8647 55.1143V64.2805H64.065V33.0803H54.8987Z" fill="#F5821F"/>
<path d="M64.0649 65.577H32.8646C32.5208 65.577 32.191 65.4405 31.9479 65.1973C31.7047 64.9542 31.5681 64.6244 31.5681 64.2805V56.6766C31.3477 56.6766 31.1338 56.6766 30.9199 56.6766C29.8472 56.7071 28.7793 56.5221 27.7794 56.1327C26.7795 55.7433 25.8678 55.1573 25.0983 54.4093C24.3288 53.6614 23.7171 52.7667 23.2994 51.7783C22.8817 50.7898 22.6665 49.7276 22.6665 48.6545C22.6665 47.5814 22.8817 46.5192 23.2994 45.5307C23.7171 44.5423 24.3288 43.6476 25.0983 42.8997C25.8678 42.1517 26.7795 41.5657 27.7794 41.1763C28.7793 40.7868 29.8472 40.6019 30.9199 40.6324C31.1338 40.6324 31.3477 40.6324 31.5681 40.6324V33.0803C31.5681 32.7364 31.7047 32.4067 31.9479 32.1635C32.191 31.9204 32.5208 31.7838 32.8646 31.7838H42.0309C42.2331 31.7842 42.4324 31.8319 42.6129 31.9231C42.7933 32.0142 42.95 32.1464 43.0703 32.3089C43.1906 32.4714 43.2712 32.6598 43.3057 32.859C43.3403 33.0582 43.3277 33.2628 43.2691 33.4563C43.1137 33.9647 43.0351 34.4934 43.0357 35.025C43.0843 36.4325 43.6776 37.766 44.6905 38.7444C45.7033 39.7229 47.0565 40.2697 48.4648 40.2697C49.873 40.2697 51.2263 39.7229 52.2391 38.7444C53.2519 37.766 53.8452 36.4325 53.8939 35.025C53.8945 34.4934 53.8158 33.9647 53.6605 33.4563C53.6019 33.2628 53.5893 33.0582 53.6238 32.859C53.6583 32.6598 53.7389 32.4714 53.8593 32.3089C53.9796 32.1464 54.1362 32.0142 54.3167 31.9231C54.4972 31.8319 54.6965 31.7842 54.8987 31.7838H64.0649C64.4088 31.7838 64.7385 31.9204 64.9817 32.1635C65.2248 32.4067 65.3614 32.7364 65.3614 33.0803V64.2805C65.3614 64.6244 65.2248 64.9542 64.9817 65.1973C64.7385 65.4405 64.4088 65.577 64.0649 65.577ZM34.1611 62.984H62.7684V34.3768H56.4609C56.4609 34.5907 56.4609 34.8046 56.4609 35.025C56.4016 37.1132 55.5304 39.0958 54.0324 40.5518C52.5344 42.0078 50.5278 42.8223 48.4389 42.8223C46.3499 42.8223 44.3433 42.0078 42.8453 40.5518C41.3473 39.0958 40.4761 37.1132 40.4168 35.025C40.4168 34.8046 40.4168 34.5907 40.4168 34.3768H34.1611V42.2465C34.1607 42.4487 34.113 42.648 34.0219 42.8285C33.9307 43.009 33.7986 43.1656 33.6361 43.2859C33.4736 43.4062 33.2852 43.4869 33.0859 43.5214C32.8867 43.5559 32.6822 43.5433 32.4887 43.4847C31.6755 43.2311 30.814 43.1723 29.9739 43.313C29.1337 43.4537 28.3385 43.7901 27.6523 44.2949C26.9661 44.7996 26.4083 45.4587 26.0238 46.2188C25.6394 46.979 25.439 47.8189 25.439 48.6707C25.439 49.5225 25.6394 50.3624 26.0238 51.1226C26.4083 51.8827 26.9661 52.5418 27.6523 53.0465C28.3385 53.5513 29.1337 53.8876 29.9739 54.0284C30.814 54.1691 31.6755 54.1103 32.4887 53.8567C32.6822 53.7981 32.8867 53.7855 33.0859 53.82C33.2852 53.8545 33.4736 53.9351 33.6361 54.0555C33.7986 54.1758 33.9307 54.3324 34.0219 54.5129C34.113 54.6934 34.1607 54.8927 34.1611 55.0949V62.984Z" fill="#444444"/>
<path d="M48.4682 43.0439C47.2124 43.0464 45.9736 42.7539 44.8516 42.1901C43.7296 41.6262 42.7556 40.8067 42.0082 39.7976C41.2609 38.7885 40.7609 37.618 40.5487 36.3803C40.3365 35.1426 40.4179 33.8724 40.7864 32.6719L43.2692 33.4239C43.1139 33.9323 43.0352 34.461 43.0358 34.9926C43.0845 36.4 43.6778 37.7336 44.6906 38.712C45.7034 39.6905 47.0567 40.2373 48.4649 40.2373C49.8732 40.2373 51.2264 39.6905 52.2392 38.712C53.2521 37.7336 53.8454 36.4 53.894 34.9926C53.8946 34.461 53.816 33.9323 53.6606 33.4239L56.1434 32.6719C56.5118 33.8718 56.5933 35.1415 56.3814 36.3787C56.1695 37.6158 55.6702 38.786 54.9235 39.795C54.1769 40.804 53.2038 41.6236 52.0826 42.1879C50.9614 42.7522 49.7234 43.0454 48.4682 43.0439V43.0439Z" fill="#444444"/>
<path d="M24.9366 33.4498L22.4538 32.7043C22.7034 31.8928 22.7592 31.034 22.6165 30.197C22.4738 29.3601 22.1366 28.5682 21.6322 27.8853C21.1278 27.2023 20.4701 26.6473 19.7121 26.2648C18.954 25.8823 18.1168 25.6831 17.2678 25.6831C16.4187 25.6831 15.5815 25.8823 14.8235 26.2648C14.0655 26.6473 13.4078 27.2023 12.9034 27.8853C12.3989 28.5682 12.0618 29.3601 11.9191 30.197C11.7764 31.034 11.8321 31.8928 12.0818 32.7043L9.59899 33.4498C9.36845 32.7001 9.25262 31.9199 9.25542 31.1355C9.2543 29.983 9.50165 28.8437 9.98063 27.7953C10.4596 26.747 11.159 25.8142 12.031 25.0606C12.9031 24.3069 13.9273 23.7502 15.034 23.4282C16.1407 23.1062 17.3038 23.0265 18.4441 23.1947C19.5843 23.3628 20.6749 23.7748 21.6416 24.4025C22.6082 25.0302 23.4282 25.859 24.0456 26.8322C24.663 27.8055 25.0633 28.9004 25.2193 30.0424C25.3753 31.1844 25.2833 32.3466 24.9495 33.4498H24.9366Z" fill="#444444"/>
</svg>
