<?xml version="1.0" encoding="utf-8"?>
<!-- Generator: Adobe Illustrator 25.0.1, SVG Export Plug-In . SVG Version: 6.00 Build 0)  -->
<svg version="1.1" id="icons" xmlns="http://www.w3.org/2000/svg" xmlns:xlink="http://www.w3.org/1999/xlink" x="0px" y="0px"
	 viewBox="0 0 88.04 88.24" style="enable-background:new 0 0 88.04 88.24;" xml:space="preserve">
<style type="text/css">
	.st0{fill:#333333;}
</style>
<g>
	<g>
		<path class="st0" d="M44.02,88.24C44.02,88.24,44.02,88.24,44.02,88.24c-11.77,0-22.82-4.58-31.13-12.89
			C4.58,67.03,0,55.98,0,44.22c0-11.76,4.58-22.81,12.89-31.13C21.21,4.78,32.26,0.2,44.02,0.2c24.27,0,44.02,19.75,44.02,44.02
			c0,11.76-4.58,22.81-12.89,31.13C66.83,83.66,55.78,88.24,44.02,88.24z M44.02,85.24C44.02,85.24,44.02,85.24,44.02,85.24
			c10.96,0,21.26-4.27,29-12.01c7.75-7.75,12.01-18.05,12.01-29.01c0-22.62-18.4-41.02-41.02-41.02c-10.96,0-21.26,4.27-29.01,12.02
			C7.27,22.96,3,33.26,3,44.22c0,10.96,4.27,21.26,12.01,29.01C22.76,80.97,33.06,85.24,44.02,85.24
			C44.02,85.24,44.02,85.24,44.02,85.24z"/>
	</g>
	<g>
		<path class="st0" d="M76.7,47.16H57.56c-1.6,0-2.9-1.3-2.9-2.9c0-3.78-2.04-7.31-5.33-9.21c-1.38-0.8-1.85-2.58-1.06-3.96
			l9.57-16.58c0.38-0.66,1.02-1.15,1.76-1.35c0.74-0.2,1.54-0.09,2.2,0.29C72.79,19.81,79.6,31.61,79.6,44.26
			C79.6,45.86,78.3,47.16,76.7,47.16z M57.67,44.16H76.6c-0.04-11.52-6.25-22.27-16.23-28.08l-9.44,16.42
			C55.06,34.94,57.63,39.39,57.67,44.16z"/>
	</g>
	<g>
		<path class="st0" d="M30.48,47.16H11.33c-1.6,0-2.9-1.3-2.9-2.9c0-12.65,6.82-24.46,17.79-30.81c0.66-0.38,1.46-0.49,2.2-0.29
			c0.75,0.2,1.37,0.68,1.76,1.35l9.57,16.58c0.8,1.38,0.32,3.16-1.06,3.96c-3.29,1.9-5.33,5.43-5.33,9.21
			C33.37,45.86,32.07,47.16,30.48,47.16z M11.44,44.16h18.94c0.04-4.77,2.61-9.22,6.74-11.65L27.64,16.1
			C17.67,21.91,11.47,32.65,11.44,44.16z M27.59,16.01L27.59,16.01L27.59,16.01L27.59,16.01z"/>
	</g>
	<g>
		<path class="st0" d="M44.02,79.85c-6.24,0-12.4-1.65-17.79-4.77c-1.38-0.8-1.86-2.58-1.06-3.96l9.57-16.58
			c0.39-0.67,1.01-1.15,1.76-1.35c0.75-0.2,1.53-0.1,2.2,0.29c3.23,1.87,7.4,1.87,10.63,0c0.66-0.38,1.46-0.49,2.19-0.29
			c0.75,0.2,1.38,0.68,1.77,1.35l9.57,16.58c0.8,1.38,0.32,3.16-1.06,3.96C56.42,78.2,50.26,79.85,44.02,79.85z M27.82,72.53
			c4.92,2.83,10.52,4.32,16.2,4.32c5.68,0,11.28-1.49,16.2-4.32L50.73,56.1c-4.03,2.35-9.32,2.37-13.44,0.03L27.82,72.53z
			 M50.7,56.03L50.7,56.03L50.7,56.03z"/>
	</g>
	<g>
		<path class="st0" d="M44.02,54c-5.37,0-9.73-4.37-9.73-9.74c0-5.37,4.37-9.73,9.73-9.73s9.73,4.37,9.73,9.73
			C53.75,49.63,49.39,54,44.02,54z M44.02,37.53c-3.71,0-6.73,3.02-6.73,6.73c0,3.71,3.02,6.74,6.73,6.74s6.73-3.02,6.73-6.74
			C50.75,40.55,47.73,37.53,44.02,37.53z"/>
	</g>
</g>
</svg>
