<svg width="51" height="66" viewBox="0 0 51 66" fill="none" xmlns="http://www.w3.org/2000/svg">
<path d="M38.1838 25.8943C38.1838 33.2445 34.28 38.8388 25.1168 37.0747C16.4926 38.5039 12.4337 33.2445 12.4337 25.8943C12.4034 24.1749 12.7128 22.4664 13.3442 20.8668C13.9756 19.2672 14.9165 17.8079 16.113 16.5727C17.3095 15.3375 18.7381 14.3507 20.3168 13.6687C21.8955 12.9867 23.5933 12.6231 25.3128 12.5987C27.0316 12.6242 28.7285 12.9886 30.3063 13.671C31.884 14.3535 33.3116 15.3405 34.5073 16.5756C35.7029 17.8107 36.6431 19.2696 37.274 20.8686C37.9049 22.4677 38.214 24.1755 38.1838 25.8943V25.8943Z" fill="#F5821F"/>
<path d="M32.8916 38.5039L31.8789 36.7235C34.2932 35.3548 36.1866 33.2256 37.2637 30.6678C38.3409 28.1101 38.5412 25.2678 37.8334 22.5843C37.1257 19.9008 35.5497 17.527 33.3512 15.8332C31.1527 14.1394 28.4555 13.2208 25.6802 13.2208C22.9049 13.2208 20.2077 14.1394 18.0092 15.8332C15.8108 17.527 14.2348 19.9008 13.527 22.5843C12.8193 25.2678 13.0196 28.1101 14.0967 30.6678C15.1739 33.2256 17.0673 35.3548 19.4816 36.7235L18.4689 38.4958C15.666 36.9039 13.4687 34.4294 12.2193 31.458C10.97 28.4867 10.7389 25.1854 11.5621 22.069C12.3854 18.9525 14.2166 16.1961 16.7704 14.2293C19.3241 12.2625 22.4569 11.196 25.6802 11.196C28.9036 11.196 32.0363 12.2625 34.5901 14.2293C37.1438 16.1961 38.9751 18.9525 39.7983 22.069C40.6215 25.1854 40.3905 28.4867 39.1411 31.458C37.8918 34.4294 35.6944 36.9039 32.8916 38.4958V38.5039Z" fill="#303030"/>
<path d="M30.8908 40.4803H20.478C20.1628 40.5132 19.8442 40.4796 19.5429 40.3815C19.2415 40.2834 18.9642 40.1232 18.7287 39.911C18.4933 39.6989 18.305 39.4397 18.1762 39.1501C18.0473 38.8606 17.9807 38.5472 17.9807 38.2303C17.9807 37.9134 18.0473 37.6 18.1762 37.3105C18.305 37.021 18.4933 36.7618 18.7287 36.5496C18.9642 36.3375 19.2415 36.1772 19.5429 36.0791C19.8442 35.9811 20.1628 35.9474 20.478 35.9804H30.8908C31.206 35.9474 31.5246 35.9811 31.8259 36.0791C32.1273 36.1772 32.4047 36.3375 32.6401 36.5496C32.8756 36.7618 33.0638 37.021 33.1927 37.3105C33.3215 37.6 33.3881 37.9134 33.3881 38.2303C33.3881 38.5472 33.3215 38.8606 33.1927 39.1501C33.0638 39.4397 32.8756 39.6989 32.6401 39.911C32.4047 40.1232 32.1273 40.2834 31.8259 40.3815C31.5246 40.4796 31.206 40.5132 30.8908 40.4803ZM20.478 37.6137C20.0452 37.6137 19.6614 37.8996 19.6614 38.2262C19.6614 38.5529 20.037 38.8469 20.478 38.8469H30.8908C31.3318 38.8469 31.7075 38.5611 31.7075 38.2262C31.7075 37.8914 31.3236 37.6137 30.8908 37.6137H20.478Z" fill="#303030"/>
<path d="M30.8908 43.3469H20.478C20.1628 43.3798 19.8442 43.3462 19.5429 43.2481C19.2415 43.15 18.9642 42.9897 18.7287 42.7776C18.4933 42.5655 18.305 42.3063 18.1762 42.0167C18.0473 41.7272 17.9807 41.4138 17.9807 41.0969C17.9807 40.78 18.0473 40.4666 18.1762 40.1771C18.305 39.8876 18.4933 39.6283 18.7287 39.4162C18.9642 39.2041 19.2415 39.0438 19.5429 38.9457C19.8442 38.8477 20.1628 38.814 20.478 38.8469H30.8908C31.206 38.814 31.5246 38.8477 31.8259 38.9457C32.1273 39.0438 32.4047 39.2041 32.6401 39.4162C32.8756 39.6283 33.0638 39.8876 33.1927 40.1771C33.3215 40.4666 33.3881 40.78 33.3881 41.0969C33.3881 41.4138 33.3215 41.7272 33.1927 42.0167C33.0638 42.3063 32.8756 42.5655 32.6401 42.7776C32.4047 42.9897 32.1273 43.15 31.8259 43.2481C31.5246 43.3462 31.206 43.3798 30.8908 43.3469V43.3469ZM20.478 40.4803C20.0452 40.4803 19.6614 40.7661 19.6614 41.0928C19.6614 41.4195 20.037 41.7135 20.478 41.7135H30.8908C31.3318 41.7135 31.7075 41.4277 31.7075 41.0928C31.7075 40.758 31.3236 40.4803 30.8908 40.4803H20.478Z" fill="#303030"/>
<path d="M30.8908 46.2134H20.478C20.1628 46.2464 19.8442 46.2127 19.5429 46.1146C19.2415 46.0166 18.9642 45.8563 18.7287 45.6442C18.4933 45.432 18.305 45.1728 18.1762 44.8833C18.0473 44.5938 17.9807 44.2804 17.9807 43.9635C17.9807 43.6466 18.0473 43.3332 18.1762 43.0437C18.305 42.7541 18.4933 42.4949 18.7287 42.2828C18.9642 42.0706 19.2415 41.9104 19.5429 41.8123C19.8442 41.7142 20.1628 41.6806 20.478 41.7135H30.8908C31.206 41.6806 31.5246 41.7142 31.8259 41.8123C32.1273 41.9104 32.4047 42.0706 32.6401 42.2828C32.8756 42.4949 33.0638 42.7541 33.1927 43.0437C33.3215 43.3332 33.3881 43.6466 33.3881 43.9635C33.3881 44.2804 33.3215 44.5938 33.1927 44.8833C33.0638 45.1728 32.8756 45.432 32.6401 45.6442C32.4047 45.8563 32.1273 46.0166 31.8259 46.1146C31.5246 46.2127 31.206 46.2464 30.8908 46.2134ZM20.478 43.3469C20.0452 43.3469 19.6614 43.6327 19.6614 43.9594C19.6614 44.2861 20.037 44.5801 20.478 44.5801H30.8908C31.3318 44.5801 31.7075 44.2942 31.7075 43.9594C31.7075 43.6245 31.3236 43.3469 30.8908 43.3469H20.478Z" fill="#303030"/>
<path d="M25.6803 8.7439C25.4095 8.7439 25.1499 8.63635 24.9584 8.4449C24.767 8.25345 24.6594 7.99379 24.6594 7.72304V1.5979C24.6594 1.32715 24.767 1.0675 24.9584 0.876048C25.1499 0.6846 25.4095 0.577045 25.6803 0.577045C25.951 0.577045 26.2107 0.6846 26.4021 0.876048C26.5936 1.0675 26.7011 1.32715 26.7011 1.5979V7.72304C26.7011 7.99379 26.5936 8.25345 26.4021 8.4449C26.2107 8.63635 25.951 8.7439 25.6803 8.7439V8.7439Z" fill="#303030"/>
<path d="M34.7537 11.194C34.5752 11.1963 34.3996 11.1482 34.2473 11.0551C34.1308 10.9883 34.0286 10.899 33.9466 10.7926C33.8646 10.6862 33.8044 10.5646 33.7695 10.4348C33.7346 10.3051 33.7257 10.1698 33.7432 10.0365C33.7607 9.90333 33.8044 9.7749 33.8716 9.65859L36.9424 4.36647C37.0048 4.24212 37.092 4.13184 37.1986 4.04242C37.3053 3.953 37.429 3.88632 37.5624 3.84648C37.6957 3.80664 37.8357 3.79447 37.9739 3.81073C38.1121 3.82699 38.2456 3.87133 38.366 3.94102C38.4864 4.01072 38.5913 4.1043 38.6743 4.21603C38.7572 4.32775 38.8165 4.45525 38.8484 4.5907C38.8802 4.72615 38.8841 4.86668 38.8597 5.00368C38.8353 5.14067 38.7831 5.27122 38.7064 5.38732L35.6357 10.7039C35.5443 10.8556 35.4148 10.9806 35.26 11.0666C35.1053 11.1526 34.9307 11.1965 34.7537 11.194V11.194Z" fill="#303030"/>
<path d="M16.6886 11.194C16.5154 11.193 16.3452 11.1483 16.1939 11.0641C16.0426 10.9799 15.915 10.8588 15.8229 10.7121L12.5888 5.47716C12.5171 5.36375 12.4686 5.23722 12.4462 5.10492C12.4238 4.97261 12.4279 4.83718 12.4583 4.70648C12.4887 4.57578 12.5448 4.45243 12.6233 4.34359C12.7017 4.23474 12.8011 4.14258 12.9155 4.07246C13.1457 3.93195 13.4219 3.88745 13.6846 3.94855C13.9473 4.00964 14.1756 4.17145 14.3202 4.39913L17.5869 9.60142C17.6586 9.71483 17.7071 9.84136 17.7295 9.97366C17.7519 10.106 17.7478 10.2414 17.7174 10.3721C17.687 10.5028 17.6309 10.6262 17.5525 10.735C17.474 10.8438 17.3747 10.936 17.2602 11.0061C17.0939 11.1266 16.894 11.1923 16.6886 11.194V11.194Z" fill="#303030"/>
<path d="M10.2368 17.7274C9.99799 17.7273 9.76681 17.6435 9.58342 17.4906L4.87931 13.5623C4.75954 13.4828 4.65794 13.3788 4.58115 13.2572C4.50437 13.1356 4.45414 12.9991 4.43377 12.8568C4.41339 12.7144 4.42331 12.5694 4.46289 12.4311C4.50248 12.2929 4.57082 12.1645 4.66345 12.0545C4.75608 11.9445 4.87091 11.8553 5.00041 11.7928C5.12991 11.7303 5.27116 11.6958 5.41491 11.6917C5.55865 11.6875 5.70165 11.7138 5.83454 11.7688C5.96743 11.8237 6.0872 11.9062 6.18601 12.0106L10.8901 15.9389C11.0512 16.0732 11.167 16.2539 11.2217 16.4563C11.2765 16.6588 11.2676 16.8732 11.1962 17.0704C11.1248 17.2676 10.9944 17.438 10.8228 17.5585C10.6511 17.679 10.4465 17.7437 10.2368 17.7438V17.7274Z" fill="#303030"/>
<path d="M7.76224 25.5513L1.6371 25.4451C1.36344 25.4408 1.10257 25.3285 0.911353 25.1327C0.720131 24.9369 0.614055 24.6734 0.616244 24.3998C0.630931 24.1398 0.74519 23.8955 0.935292 23.7175C1.12539 23.5396 1.37673 23.4417 1.6371 23.4442V23.4442L7.76224 23.5504C8.03299 23.5504 8.29265 23.658 8.4841 23.8494C8.67555 24.0409 8.7831 24.3005 8.7831 24.5713C8.7831 24.842 8.67555 25.1017 8.4841 25.2931C8.29265 25.4846 8.03299 25.5921 7.76224 25.5921V25.5513Z" fill="#303030"/>
<path d="M43.5984 25.5186C43.3276 25.5186 43.068 25.4111 42.8765 25.2196C42.6851 25.0282 42.5775 24.7685 42.5775 24.4978C42.5775 24.227 42.6851 23.9674 42.8765 23.7759C43.068 23.5845 43.3276 23.4769 43.5984 23.4769L49.7235 23.4442C49.9943 23.4442 50.2539 23.5518 50.4454 23.7432C50.6368 23.9347 50.7444 24.1943 50.7444 24.4651C50.7454 24.5988 50.7201 24.7313 50.6696 24.8551C50.6192 24.979 50.5448 25.0916 50.4507 25.1865C50.3565 25.2814 50.2445 25.3567 50.1211 25.4081C49.9977 25.4595 49.8654 25.486 49.7317 25.486L43.6065 25.535L43.5984 25.5186Z" fill="#303030"/>
<path d="M48.1146 37.0176C47.9462 37.0177 47.7806 36.9756 47.6327 36.8951L42.2671 33.9877C42.0289 33.8588 41.8516 33.6405 41.7742 33.3809C41.6969 33.1213 41.7258 32.8416 41.8547 32.6034C41.9836 32.3651 42.2018 32.1878 42.4614 32.1105C42.721 32.0331 43.0007 32.0621 43.239 32.1909L48.6291 35.0983C48.748 35.1618 48.8532 35.2481 48.9385 35.3523C49.0239 35.4566 49.0878 35.5767 49.1265 35.7058C49.1652 35.8348 49.178 35.9703 49.1641 36.1043C49.1503 36.2384 49.11 36.3683 49.0456 36.4867C48.9535 36.6516 48.818 36.7881 48.654 36.8817C48.4899 36.9753 48.3034 37.0222 48.1146 37.0176V37.0176Z" fill="#303030"/>
<path d="M3.25404 37.0176C3.02637 37.0187 2.80484 36.9437 2.62469 36.8045C2.44453 36.6653 2.31608 36.4699 2.25976 36.2493C2.20344 36.0287 2.22247 35.7956 2.31384 35.587C2.40521 35.3785 2.56367 35.2065 2.76403 35.0983L8.16232 32.1909C8.28083 32.119 8.41275 32.072 8.55002 32.0527C8.6873 32.0335 8.82706 32.0424 8.96079 32.0789C9.09452 32.1154 9.21941 32.1788 9.32785 32.2651C9.43629 32.3515 9.526 32.459 9.59153 32.5812C9.65705 32.7033 9.697 32.8376 9.70896 32.9757C9.72091 33.1138 9.70461 33.2529 9.66106 33.3845C9.6175 33.5161 9.54759 33.6374 9.45561 33.7411C9.36362 33.8448 9.25147 33.9287 9.12601 33.9877L3.73588 36.8951C3.5877 36.9747 3.42225 37.0167 3.25404 37.0176V37.0176Z" fill="#303030"/>
<path d="M40.8134 17.2619C40.5871 17.2634 40.3666 17.1896 40.1868 17.0522C40.007 16.9147 39.8779 16.7214 39.8199 16.5026C39.762 16.2838 39.7784 16.0519 39.8665 15.8434C39.9547 15.6349 40.1097 15.4617 40.3071 15.3509L45.6564 12.3537C45.893 12.2239 46.1711 12.1923 46.4307 12.2656C46.6904 12.3389 46.9109 12.5113 47.0447 12.7457C47.1111 12.8623 47.1537 12.991 47.1699 13.1243C47.1862 13.2575 47.1757 13.3927 47.1393 13.5219C47.1028 13.6511 47.041 13.7717 46.9575 13.8768C46.8739 13.9819 46.7703 14.0693 46.6527 14.134L41.3034 17.1313C41.1544 17.2171 40.9854 17.2621 40.8134 17.2619V17.2619Z" fill="#303030"/>
<path d="M25.6802 49.8068C24.665 49.8047 23.6921 49.4005 22.9742 48.6826C22.2564 47.9648 21.8521 46.9918 21.85 45.9766H23.8917C23.8917 46.4509 24.0801 46.9059 24.4155 47.2413C24.751 47.5767 25.2059 47.7651 25.6802 47.7651C26.1546 47.7651 26.6095 47.5767 26.9449 47.2413C27.2803 46.9059 27.4688 46.4509 27.4688 45.9766H29.5105C29.5083 46.9918 29.1041 47.9648 28.3862 48.6826C27.6684 49.4005 26.6954 49.8047 25.6802 49.8068V49.8068Z" fill="#303030"/>
<path d="M25.6803 64.8829C25.4095 64.8829 25.1499 64.7753 24.9584 64.5839C24.767 64.3924 24.6594 64.1327 24.6594 63.862V48.8023C24.6594 48.5316 24.767 48.2719 24.9584 48.0805C25.1499 47.889 25.4095 47.7815 25.6803 47.7815C25.951 47.7815 26.2107 47.889 26.4021 48.0805C26.5936 48.2719 26.7011 48.5316 26.7011 48.8023V63.862C26.7011 64.1327 26.5936 64.3924 26.4021 64.5839C26.2107 64.7753 25.951 64.8829 25.6803 64.8829V64.8829Z" fill="#303030"/>
<path d="M26.252 65.577C25.8436 65.577 25.5986 65.577 25.5823 65.577C25.3303 65.5527 25.0963 65.4357 24.9257 65.2485C24.7552 65.0614 24.6603 64.8175 24.6594 64.5644C24.6594 49.913 41.083 47.8876 41.2463 47.8713C41.3956 47.8579 41.5461 47.8772 41.6872 47.928C41.8282 47.9788 41.9565 48.0598 42.063 48.1653C42.1695 48.2711 42.2511 48.3993 42.3019 48.5406C42.3528 48.6818 42.3716 48.8326 42.357 48.982C40.6746 64.5725 29.2002 65.577 26.252 65.577ZM40.1356 50.06C36.6484 50.8195 27.3218 53.6616 26.7501 63.5435C29.6494 63.4618 38.2572 62.245 40.1683 50.1009L40.1356 50.06Z" fill="#303030"/>
<path d="M25.1168 65.5771C22.2012 65.5771 10.7023 64.5725 8.99543 48.9738C8.98142 48.8245 9.0005 48.6738 9.05131 48.5327C9.10213 48.3915 9.18343 48.2633 9.28944 48.1572C9.39625 48.0521 9.52456 47.9714 9.66555 47.9206C9.80653 47.8699 9.95684 47.8503 10.1061 47.8631C10.2695 47.8631 26.6848 49.913 26.6848 64.5562C26.684 64.8094 26.5891 65.0532 26.4185 65.2404C26.248 65.4275 26.014 65.5446 25.762 65.5689C25.762 65.5689 25.5251 65.5771 25.1168 65.5771ZM11.2331 50.1009C13.1115 62.2368 21.7112 63.4618 24.635 63.5435C24.0469 53.6616 14.7204 50.8277 11.2331 50.1009Z" fill="#303030"/>
</svg>
