<svg xmlns="http://www.w3.org/2000/svg" viewBox="0 0 231.65 117.62"><defs><style>.cls-1{fill:none;}.cls-2{fill:#f58220;}.cls-3{fill:#1c3968;}</style></defs><g id="Layer_2" data-name="Layer 2"><g id="Layer_1-2" data-name="Layer 1"><path class="cls-1" d="M132.89,89.55a8.52,8.52,0,0,0,3.9-.93,11.48,11.48,0,0,0,3-2.07l-8-9.71a14.53,14.53,0,0,0-4.14,3.62,6.19,6.19,0,0,0-1,3.45,5.41,5.41,0,0,0,1.75,3.88A6.05,6.05,0,0,0,132.89,89.55Z"/><path class="cls-1" d="M134.37,68A15.53,15.53,0,0,0,137,65.89a4.81,4.81,0,0,0,1.5-3.39,3.51,3.51,0,0,0-.9-2.37,3.4,3.4,0,0,0-2.73-1.05,4,4,0,0,0-2.12.61,3.07,3.07,0,0,0-1.5,2.84A4.37,4.37,0,0,0,132,65,33.31,33.31,0,0,0,134.37,68Z"/><path class="cls-2" d="M147.81,0A145.92,145.92,0,0,0,58.1,30.46a148.34,148.34,0,0,0-51.62,75.2c4.57-.47,9.31-.88,14.13-1.21A135.1,135.1,0,0,1,219.82,33.76v-15A147.39,147.39,0,0,0,147.81,0Z"/><path class="cls-3" d="M120.32,77.58a11.27,11.27,0,0,0-1.9,6.59,11.94,11.94,0,0,0,3.68,8.48q3.68,3.81,10.22,3.81A16.59,16.59,0,0,0,140,94.75a18.48,18.48,0,0,0,4-3l3,3.61h10l-7.74-9.24a21.91,21.91,0,0,0,3-4.93,23.34,23.34,0,0,0,1.88-7.85H146.8a12.65,12.65,0,0,1-.6,3.72,12.18,12.18,0,0,1-1.62,3.27l-6.12-7.43a17.4,17.4,0,0,0,5.27-4.34,9.81,9.81,0,0,0,1.8-6.13,8.78,8.78,0,0,0-3-6.85,10.94,10.94,0,0,0-7.59-2.69,12.46,12.46,0,0,0-8.19,2.62,9,9,0,0,0-3.16,7.29,10.63,10.63,0,0,0,1,4.51,18,18,0,0,0,2.86,4.26l-.89.55A20.88,20.88,0,0,0,120.32,77.58Zm12.34-17.89a4,4,0,0,1,2.13-.61,3.4,3.4,0,0,1,2.73,1.05,3.51,3.51,0,0,1,.9,2.37,4.81,4.81,0,0,1-1.5,3.39A15.53,15.53,0,0,1,134.34,68,36.21,36.21,0,0,1,132,65a4.45,4.45,0,0,1-.84-2.43A3.07,3.07,0,0,1,132.66,59.69Zm-5,20.77a14.82,14.82,0,0,1,4.14-3.62l8,9.71a11.24,11.24,0,0,1-3,2.07,8.55,8.55,0,0,1-3.9.93,6.09,6.09,0,0,1-4.49-1.76,5.45,5.45,0,0,1-1.75-3.88A6.27,6.27,0,0,1,127.63,80.46Z"/><path class="cls-3" d="M81.16,57Q87,57,90,60.39A14.57,14.57,0,0,1,92.77,66H104a18.33,18.33,0,0,0-3.67-9.67q-6.18-8.58-19.56-8.58-10,0-16.46,6.4-7.45,7.35-7.45,20.92,0,12.56,6.55,19.77t18,7.17q9.24,0,15.15-5.31a23.07,23.07,0,0,0,7.36-13.78H92.73a16.13,16.13,0,0,1-2.77,6q-3,3.72-8.78,3.73a11.55,11.55,0,0,1-9.26-4.35Q68.27,84,68.27,75.26t3.45-13.48A11,11,0,0,1,81.16,57Z"/><polygon class="cls-3" points="216.39 100.31 216.39 48.53 205.28 48.53 205.28 68.27 186.78 68.27 184.47 68.27 184.47 48.53 173.36 48.53 173.36 68.27 165.9 68.27 165.9 77.19 173.36 77.19 173.36 100.31 184.47 100.31 184.47 77.19 205.28 77.19 205.28 100.31 216.39 100.31"/><path class="cls-3" d="M174.46,110.22c-39.09,0-78.18-3.32-117.27-3.32-12.17,0-24.34.33-36.5,1.17q-8.28.59-16.56,1.5c-1.37.16-2.75.3-4.13.47v2.73l3.41-.31,1.38-.12c5-.42,9.93-.73,14.9-1,7.31-.34,14.62-.49,21.93-.49,49.47,0,98.93,6.73,148.4,6.73,13.87,0,27.75-.53,41.63-1.89v-8.65A466.58,466.58,0,0,1,174.46,110.22Z"/></g></g></svg>